<svg width="895" height="148" viewBox="0 0 895 148" fill="none" xmlns="http://www.w3.org/2000/svg">
<path d="M252.33 44.38C250.39 42.5 248.15 40.87 245.55 39.57C241.24 37.36 236.25 36.26 230.57 36.26C223.74 36.26 217.59 37.94 212.13 41.3C206.67 44.56 202.36 49.02 199.2 54.7C196.15 60.38 194.63 66.79 194.63 73.93C194.63 81.07 196.15 87.54 199.2 93.32C202.35 99.1 206.66 103.67 212.13 107.03C217.59 110.29 223.74 111.92 230.57 111.92C236.14 111.92 241.08 110.87 245.39 108.77C247.99 107.47 250.22 105.84 252.17 103.96V110.35C252.17 116.13 250.28 120.65 246.49 123.91C242.81 127.17 237.77 128.8 231.36 128.8C226.21 128.8 221.8 127.85 218.12 125.96C214.55 124.17 211.29 121.55 208.35 118.08L195.27 131.16C198.95 136.41 203.89 140.46 210.09 143.3C216.29 146.24 223.44 147.71 231.53 147.71C239.62 147.71 246.77 146.13 252.97 142.98C259.17 139.83 264 135.41 267.47 129.74C271.04 124.17 272.83 117.6 272.83 110.04V37.84H252.34V44.39L252.33 44.38ZM251.07 84.02C249.49 86.86 247.29 89.12 244.45 90.8C241.72 92.38 238.46 93.16 234.68 93.16C230.9 93.16 227.59 92.32 224.75 90.64C221.91 88.96 219.71 86.7 218.13 83.86C216.55 80.92 215.77 77.66 215.77 74.09C215.77 70.52 216.56 67.15 218.13 64.32C219.71 61.38 221.91 59.12 224.75 57.54C227.59 55.86 230.9 55.02 234.68 55.02C238.46 55.02 241.72 55.86 244.45 57.54C247.29 59.12 249.49 61.32 251.07 64.16C252.65 67 253.43 70.31 253.43 74.09C253.43 77.87 252.64 81.08 251.07 84.02Z" fill="black"/>
<path d="M331.25 81.5C331.25 86.23 330.04 89.91 327.62 92.53C325.2 95.16 321.84 96.47 317.53 96.47C314.69 96.47 312.22 95.89 310.12 94.74C308.02 93.58 306.44 91.9 305.39 89.7C304.34 87.39 303.81 84.66 303.81 81.5V37.83H283V81.97C283 88.59 284.47 94.42 287.41 99.47C290.35 104.51 294.4 108.46 299.55 111.29C304.8 114.13 310.79 115.55 317.52 115.55C324.25 115.55 330.18 114.18 335.33 111.45C340.58 108.61 344.63 104.67 347.47 99.63C350.41 94.59 351.88 88.7 351.88 81.97V37.83H331.23V81.5H331.25Z" fill="black"/>
<path d="M423.6 41.46C418.03 37.99 411.72 36.26 404.68 36.26C399.22 36.26 394.28 37.42 389.86 39.73C387.31 41.1 385.08 42.79 383.08 44.75V37.84H362.43V145.82H382.92V107.2C384.92 109.15 387.21 110.86 389.86 112.24C394.27 114.45 399.21 115.55 404.68 115.55C411.72 115.55 418.03 113.82 423.6 110.35C429.17 106.88 433.53 102.15 436.68 96.16C439.94 90.17 441.57 83.44 441.57 75.98C441.57 68.52 439.94 61.63 436.68 55.64C433.53 49.65 429.17 44.92 423.6 41.45V41.46ZM417.92 86.7C416.34 89.75 414.08 92.16 411.14 93.95C408.2 95.63 404.83 96.47 401.05 96.47C397.27 96.47 393.9 95.63 390.96 93.95C388.12 92.16 385.86 89.75 384.18 86.7C382.6 83.55 381.82 79.92 381.82 75.82C381.82 71.72 382.61 68.31 384.18 65.26C385.86 62.11 388.17 59.69 391.12 58.01C394.06 56.22 397.37 55.33 401.05 55.33C404.73 55.33 408.2 56.22 411.14 58.01C414.08 59.69 416.34 62.11 417.92 65.26C419.6 68.31 420.44 71.83 420.44 75.82C420.44 79.81 419.6 83.54 417.92 86.7Z" fill="black"/>
<path d="M469.53 55.02C471.21 54.07 473.58 53.5999 476.62 53.5999C479.98 53.5999 483.08 54.23 485.92 55.49C488.86 56.75 491.49 58.7999 493.8 61.6399L506.25 49.19C502.89 44.78 498.63 41.47 493.48 39.26C488.44 37.05 482.76 35.95 476.46 35.95C470.16 35.95 465.27 36.95 460.85 38.95C456.44 40.95 453.02 43.73 450.6 47.3C448.29 50.87 447.13 55.08 447.13 59.91C447.13 64.74 448.03 68.32 449.81 71.26C451.7 74.1 454.12 76.36 457.06 78.04C460 79.62 463.05 80.93 466.2 81.98C469.46 82.93 472.56 83.82 475.5 84.66C478.44 85.4 480.81 86.34 482.59 87.5C484.48 88.66 485.43 90.2799 485.43 92.3899C485.43 94.2799 484.54 95.7 482.75 96.65C481.07 97.6 478.55 98.07 475.18 98.07C470.98 98.07 467.14 97.33 463.67 95.86C460.2 94.3899 457.16 92.18 454.53 89.24L442.24 101.69C444.76 104.63 447.76 107.15 451.22 109.26C454.69 111.26 458.47 112.83 462.57 113.99C466.78 115.15 471.03 115.72 475.34 115.72C484.59 115.72 491.89 113.57 497.25 109.26C502.61 104.85 505.29 98.91 505.29 91.45C505.29 86.83 504.34 83.0399 502.45 80.0999C500.67 77.16 498.3 74.79 495.36 73.01C492.52 71.22 489.48 69.86 486.22 68.91C483.07 67.86 480.02 66.97 477.08 66.23C474.14 65.39 471.72 64.4399 469.83 63.3899C468.05 62.34 467.15 60.87 467.15 58.98C467.15 57.3 467.94 55.98 469.51 55.04L469.53 55.02Z" fill="black"/>
<path d="M570.87 40.04C566.46 37.52 561.36 36.26 555.58 36.26C549.8 36.26 544.65 37.52 540.13 40.04C537.82 41.36 535.78 42.98 533.98 44.85V0H513.33V113.97H533.98V70.3C533.98 67.25 534.61 64.57 535.87 62.26C537.24 59.95 539.08 58.16 541.39 56.9C543.7 55.64 546.33 55.01 549.27 55.01C553.79 55.01 557.47 56.43 560.3 59.27C563.14 62.11 564.56 65.79 564.56 70.3V113.97H585.21V65.73C585.21 59.95 583.95 54.85 581.43 50.44C578.91 46.03 575.39 42.56 570.87 40.04Z" fill="black"/>
<path d="M642.13 81.5C642.13 86.23 640.92 89.91 638.5 92.53C636.08 95.16 632.72 96.47 628.41 96.47C625.57 96.47 623.1 95.89 621 94.74C618.9 93.58 617.32 91.9 616.27 89.7C615.22 87.39 614.69 84.66 614.69 81.5V37.83H593.88V81.97C593.88 88.59 595.35 94.42 598.29 99.47C601.23 104.51 605.28 108.46 610.43 111.29C615.69 114.13 621.68 115.55 628.4 115.55C635.12 115.55 641.06 114.18 646.21 111.45C651.47 108.61 655.51 104.67 658.35 99.63C661.29 94.59 662.76 88.7 662.76 81.97V37.83H642.11V81.5H642.13Z" fill="black"/>
<path d="M734.48 41.46C728.91 37.99 722.6 36.26 715.56 36.26C710.1 36.26 705.16 37.42 700.74 39.73C698.19 41.1 695.96 42.79 693.96 44.75V37.84H673.31V145.82H693.8V107.2C695.8 109.15 698.09 110.86 700.74 112.24C705.15 114.45 710.09 115.55 715.56 115.55C722.6 115.55 728.91 113.82 734.48 110.35C740.05 106.88 744.41 102.15 747.56 96.16C750.82 90.17 752.45 83.44 752.45 75.98C752.45 68.52 750.82 61.63 747.56 55.64C744.41 49.65 740.05 44.92 734.48 41.45V41.46ZM728.81 86.7C727.23 89.75 724.97 92.16 722.03 93.95C719.09 95.63 715.72 96.47 711.94 96.47C708.16 96.47 704.79 95.63 701.85 93.95C699.01 92.16 696.75 89.75 695.07 86.7C693.49 83.55 692.71 79.92 692.71 75.82C692.71 71.72 693.5 68.31 695.07 65.26C696.75 62.11 699.06 59.69 702.01 58.01C704.95 56.22 708.26 55.33 711.94 55.33C715.62 55.33 719.09 56.22 722.03 58.01C724.97 59.69 727.23 62.11 728.81 65.26C730.49 68.31 731.33 71.83 731.33 75.82C731.33 79.81 730.49 83.54 728.81 86.7Z" fill="black"/>
<path d="M767.53 89.38C763.75 89.38 760.65 90.64 758.23 93.16C755.81 95.68 754.6 98.78 754.6 102.46C754.6 106.14 755.81 109.24 758.23 111.76C760.65 114.28 763.75 115.54 767.53 115.54C771.31 115.54 774.26 114.28 776.67 111.76C779.09 109.24 780.3 106.14 780.3 102.46C780.3 98.78 779.09 95.68 776.67 93.16C774.25 90.64 771.21 89.38 767.53 89.38Z" fill="black"/>
<path d="M839.62 45.23C837.54 42.96 835.09 41.04 832.21 39.57C827.9 37.36 823.02 36.26 817.55 36.26C810.61 36.26 804.36 37.99 798.79 41.46C793.22 44.93 788.86 49.66 785.71 55.65C782.56 61.64 780.98 68.42 780.98 75.99C780.98 83.56 782.56 90.18 785.71 96.17C788.86 102.16 793.23 106.89 798.79 110.36C804.36 113.83 810.61 115.56 817.55 115.56C823.02 115.56 827.9 114.46 832.21 112.25C835.09 110.7 837.54 108.77 839.62 106.52V113.98H860.11V37.84H839.62V45.24V45.23ZM835.36 90.8C831.79 94.58 827.11 96.47 821.33 96.47C817.55 96.47 814.19 95.63 811.24 93.95C808.4 92.16 806.14 89.75 804.46 86.7C802.88 83.55 802.1 79.92 802.1 75.82C802.1 71.72 802.89 68.31 804.46 65.26C806.14 62.11 808.4 59.69 811.24 58.01C814.18 56.22 817.55 55.33 821.33 55.33C825.11 55.33 828.58 56.22 831.42 58.01C834.36 59.69 836.62 62.11 838.2 65.26C839.88 68.31 840.72 71.83 840.72 75.82C840.72 81.92 838.94 86.91 835.36 90.8Z" fill="black"/>
<path d="M893.28 37.84H872.47V113.98H893.28V37.84Z" fill="black"/>
<path d="M882.88 25.5399C886.35 25.5399 889.13 24.4399 891.23 22.2299C893.44 19.9199 894.54 17.0799 894.54 13.7199C894.54 10.3599 893.44 7.6799 891.23 5.3699C889.13 3.0599 886.34 1.8999 882.88 1.8999C879.42 1.8999 876.73 3.0599 874.53 5.3699C872.32 7.6799 871.22 10.4699 871.22 13.7199C871.22 16.9699 872.32 19.9199 874.53 22.2299C876.74 24.4399 879.52 25.5399 882.88 25.5399Z" fill="black"/>
<path d="M145.13 20.73V90.93C145.13 101.78 136.34 110.57 125.49 110.57H74.22L66.3 118.49C64.12 120.67 65.66 124.39 68.74 124.39H94.52L116.1 145.97C119.8 149.67 126.13 147.05 126.13 141.82V124.4H131.32C146.59 124.4 158.96 112.02 158.96 96.76V34.56C158.96 26.93 152.77 20.74 145.14 20.74L145.13 20.73Z" fill="#FF3964"/>
<path d="M120.94 0H17.28C7.74 0 0 7.74 0 17.28V86.39C0 95.93 7.74 103.67 17.28 103.67H32.84V128.01C32.84 133.24 39.17 135.86 42.87 132.16L71.36 103.67H120.95C130.49 103.67 138.23 95.93 138.23 86.39V17.28C138.23 7.74 130.49 0 120.95 0H120.94Z" fill="#5E34F1"/>
<path d="M71.1 48.9L93 57L71.1 65.1L63 87L54.9 65.1L33 57L54.9 48.9L63 27L71.1 48.9Z" fill="white"/>
<path d="M94.78 27.22L105 31L94.78 34.78L91 45L87.22 34.78L77 31L87.22 27.22L91 17L94.78 27.22Z" fill="white"/>
</svg>
