<svg xmlns="http://www.w3.org/2000/svg" width="292" height="75" viewBox="0 0 292 75" fill="none"><path d="M59.8304 30.454V58.0203C59.8304 59.7248 59.5487 61.3658 59.0627 62.9011C56.9709 69.4159 50.8717 74.1559 43.6949 74.1559H0V30.454C0 21.5657 7.24726 14.3185 16.1355 14.3185H43.7019C52.5831 14.3185 59.8304 21.5657 59.8304 30.454Z" fill="#00A68B"></path><path d="M44.0823 14.1495C44.0823 14.2199 44.0823 14.2903 44.0471 14.3608H39.8988C39.8636 14.2903 39.8636 14.2199 39.8636 14.1495C39.8636 8.67707 35.4053 4.18363 29.8977 4.18363C24.3901 4.18363 19.9318 8.64185 19.9318 14.1495C19.9318 14.2199 19.9318 14.2903 19.9318 14.3608H15.7835C15.7483 14.2903 15.7483 14.2199 15.7483 14.1495C15.7483 6.34583 22.087 7.62939e-05 29.8977 7.62939e-05C37.7084 7.62939e-05 44.0823 6.33879 44.0823 14.1495Z" fill="#00A68B"></path><path d="M19.9669 14.2832C19.9669 15.4312 19.0231 16.375 17.8751 16.375C16.7271 16.375 15.7833 15.4312 15.7833 14.2832H19.9669Z" fill="#00A68B"></path><path d="M44.0122 14.2832C44.0122 15.4312 43.0684 16.375 41.9204 16.375C40.7724 16.375 39.8286 15.4312 39.8286 14.2832H44.0122Z" fill="#00A68B"></path><path d="M46.0687 47.0051C46.0687 55.9638 38.7862 63.2463 29.8275 63.2463C20.8688 63.2463 13.5934 55.9638 13.5934 47.0051" fill="white"></path><path d="M79.8673 33.2078C78.7193 33.2078 77.7755 32.8275 77.0078 32.095C76.2753 31.3274 75.895 30.3906 75.895 29.2356C75.895 28.0876 76.2753 27.1438 77.0078 26.3761C77.7403 25.6084 78.7122 25.2633 79.8673 25.2633C81.0223 25.2633 81.9591 25.6436 82.7267 26.3761C83.4592 27.1438 83.8395 28.0805 83.8395 29.2356C83.8395 30.3836 83.4592 31.3274 82.7267 32.095C81.9943 32.8275 81.0153 33.2078 79.8673 33.2078ZM76.5923 67.9862V37.0745H83.2127V67.9862H76.5923Z" fill="black"></path><path d="M88.791 67.9861V37.0743H94.6438L95.1297 42.5115C96.0735 40.5958 97.4962 39.0957 99.3485 37.9829C101.194 36.8701 103.321 36.3419 105.722 36.3419C109.448 36.3419 112.413 37.4899 114.54 39.8282C116.667 42.1664 117.745 45.6105 117.745 50.2448V68.0143H111.195V50.942C111.195 44.9484 108.758 41.9833 103.842 41.9833C101.405 41.9833 99.3837 42.8566 97.7779 44.5963C96.1721 46.3359 95.3762 48.8503 95.3762 52.09V68.0495H88.791V67.9861Z" fill="black"></path><path d="M135.655 67.9861C132.627 67.9861 130.218 67.2536 128.443 65.7886C126.668 64.3237 125.76 61.6755 125.76 57.9145V42.6523H120.463V37.0743H125.76V29.2354H132.38V37.0743H141.092V42.6171H132.38V57.8793C132.38 59.5837 132.725 60.774 133.458 61.4008C134.19 62.0277 135.444 62.3798 137.219 62.3798H140.775V67.9931L135.655 67.9861Z" fill="black"></path><path d="M161.51 68.7541C158.481 68.7541 155.798 68.092 153.424 66.7327C151.093 65.3734 149.241 63.4929 147.917 61.0842C146.592 58.6825 145.93 55.8583 145.93 52.6889C145.93 49.4492 146.592 46.5897 147.881 44.1528C149.205 41.7159 151.015 39.8002 153.354 38.4409C155.685 37.0816 158.439 36.3844 161.545 36.3844C164.573 36.3844 167.221 37.0464 169.454 38.4057C171.687 39.765 173.426 41.5399 174.68 43.8077C175.934 46.0403 176.56 48.5124 176.56 51.231C176.56 51.6466 176.56 52.1044 176.525 52.5551C176.49 53.0411 176.455 53.5623 176.42 54.1609H152.382C152.593 57.1542 153.565 59.4221 155.347 60.9927C157.122 62.5632 159.143 63.3239 161.481 63.3239C163.362 63.3239 164.932 62.9084 166.186 62.035C167.44 61.1969 168.384 60.0489 169.01 58.5839H175.631C174.793 61.4786 173.159 63.9155 170.68 65.8664C168.236 67.7751 165.172 68.7541 161.51 68.7541ZM161.51 41.7441C159.312 41.7441 157.361 42.4061 155.657 43.695C153.952 45.0191 152.903 46.97 152.558 49.583H170.018C169.877 47.1813 169.039 45.2586 167.475 43.8711C165.834 42.4766 163.883 41.7441 161.51 41.7441Z" fill="black"></path><path d="M183.428 67.9861V37.0743H189.351L189.907 42.927C190.985 40.9057 192.485 39.2717 194.436 38.0815C196.352 36.8982 198.69 36.3066 201.437 36.3066V43.2088H199.627C197.817 43.2088 196.176 43.5257 194.746 44.1173C193.316 44.7089 192.168 45.7231 191.33 47.181C190.492 48.6108 190.041 50.5969 190.041 53.1394V67.9861H183.428Z" fill="black"></path><path d="M217.579 68.754C214.966 68.754 212.804 68.3033 211.1 67.43C209.395 66.5566 208.134 65.4086 207.303 63.9789C206.465 62.5492 206.05 60.9856 206.05 59.2742C206.05 56.2809 207.198 53.9074 209.536 52.1678C211.867 50.4281 215.184 49.5548 219.502 49.5548H227.587V48.9984C227.587 46.5967 226.925 44.7796 225.636 43.5612C224.312 42.3427 222.643 41.7511 220.551 41.7511C218.741 41.7511 217.135 42.2019 215.776 43.0752C214.417 43.9838 213.614 45.2726 213.304 47.0475H206.684C206.895 44.8148 207.663 42.8991 208.951 41.3004C210.275 39.6946 211.917 38.4761 213.938 37.6451C215.959 36.8069 218.157 36.3562 220.558 36.3562C224.883 36.3562 228.221 37.469 230.595 39.7368C232.961 42.0047 234.151 45.0684 234.151 49.0054V67.9934H227.946L227.841 62.6971C226.967 64.4015 225.714 65.8312 224.045 66.9862C222.46 68.1554 220.262 68.754 217.579 68.754ZM218.903 63.3873C220.678 63.3873 222.178 62.9717 223.432 62.0984C224.65 61.2603 225.629 60.1123 226.291 58.7178C226.989 57.288 227.404 55.7526 227.58 54.0482H220.227C217.614 54.0482 215.769 54.499 214.649 55.4075C213.536 56.3161 213.008 57.4641 213.008 58.8234C213.008 60.2531 213.529 61.3307 214.614 62.1688C215.628 62.9647 217.058 63.3873 218.903 63.3873Z" fill="black"></path><path d="M239.744 67.9861V23.1362H246.364V49.8644L258.211 37.0743H266.12L252.985 51.0829L268.071 67.9861H259.711L246.364 52.1675V67.9861H239.744Z" fill="black"></path><path d="M286.086 67.9861C283.058 67.9861 280.649 67.2536 278.874 65.7886C277.1 64.3237 276.191 61.6755 276.191 57.9145V42.6523H270.895V37.0743H276.191V29.2354H282.811V37.0743H291.524V42.6171H282.811V57.8793C282.811 59.5837 283.157 60.774 283.889 61.4008C284.621 62.0277 285.875 62.3798 287.65 62.3798H291.207V67.9931L286.086 67.9861Z" fill="black"></path></svg>